<svg xmlns="http://www.w3.org/2000/svg" viewBox="0 0 148.48 156.17"><defs><style>.cls-1{fill:#4a2858;}.cls-2{fill:#5d5c62;stroke:#f1f2f2;stroke-miterlimit:10;stroke-width:0.47px;}.cls-3{fill:#240431;}.cls-4{fill:#905ba5;}.cls-5{fill:#a5a4a4;}</style></defs><title>icon3</title><g id="Layer_2" data-name="Layer 2"><g id="Layer_2-2" data-name="Layer 2"><polygon class="cls-1" points="134.68 90.11 82.66 130.52 21.65 105.67 12.66 40.41 64.69 0 125.7 24.85 134.68 90.11"/><polygon class="cls-2" points="60.15 48.37 20.23 48.37 0.27 82.94 20.23 117.51 60.15 117.51 80.11 82.94 60.15 48.37"/><polygon class="cls-3" points="92.86 87.03 52.94 87.03 32.98 121.6 52.94 156.17 92.86 156.17 112.82 121.6 92.86 87.03"/><polygon class="cls-4" points="59.9 110.11 105.11 134.08 148.47 106.9 146.62 55.76 101.41 31.8 58.05 58.97 59.9 110.11"/><polygon class="cls-5" points="84.14 21.68 53.23 21.68 37.77 48.45 53.23 75.22 84.14 75.22 99.6 48.45 84.14 21.68"/></g></g></svg>