<svg xmlns="http://www.w3.org/2000/svg" viewBox="0 0 120.68 123.51"><defs><style>.cls-1{fill:#240431;}.cls-2{fill:#ccbede;}.cls-3{fill:#905ba5;}.cls-4{fill:#a5a4a4;}.cls-5{fill:#5d5c62;}</style></defs><title>icon2</title><g id="Layer_2" data-name="Layer 2"><g id="Layer_2-2" data-name="Layer 2"><rect class="cls-1" x="7.89" y="19.02" width="73.74" height="8.62"/><rect class="cls-2" x="12.56" y="23.34" width="81.42" height="9.3"/><rect class="cls-3" x="33.96" y="44.07" width="59.91" height="10.23"/><rect class="cls-4" x="12.56" width="23.04" height="34.85"/><rect class="cls-1" x="50.68" y="26.5" width="8.45" height="61.31"/><rect class="cls-1" x="45.19" y="34.04" width="73.74" height="8.62"/><rect class="cls-2" x="39.26" y="49.95" width="81.42" height="9.3"/><rect class="cls-3" x="60.67" y="70.68" width="59.91" height="10.23"/><rect class="cls-5" x="33.91" y="39.83" width="38.41" height="18.15"/><rect class="cls-4" x="39.26" y="26.61" width="23.04" height="34.85"/><rect class="cls-1" x="77.38" y="53.11" width="8.45" height="61.31"/><rect class="cls-1" x="26.7" y="57.16" width="8.45" height="61.31"/><rect class="cls-2" x="-21.07" y="78.15" width="81.42" height="9.3" transform="translate(-63.16 102.44) rotate(-90)"/><rect class="cls-3" x="10.88" y="67.03" width="59.91" height="10.23" transform="translate(-31.31 112.98) rotate(-90)"/><rect class="cls-5" x="-10.13" y="33.01" width="38.41" height="18.15" transform="translate(-33.01 51.16) rotate(-90)"/><rect class="cls-4" x="74.31" y="75.65" width="23.04" height="34.85" transform="translate(-7.24 178.9) rotate(-90)"/><rect class="cls-1" x="44.59" y="50.51" width="8.45" height="61.31" transform="translate(-32.36 129.98) rotate(-90)"/><rect class="cls-1" x="-24.31" y="54.38" width="73.74" height="8.62" transform="translate(-46.13 71.25) rotate(-90)"/><rect class="cls-2" x="5.54" y="51.44" width="81.42" height="9.3" transform="translate(-9.85 102.35) rotate(-90)"/><rect class="cls-3" x="37.49" y="40.33" width="59.91" height="10.23" transform="translate(22 112.89) rotate(-90)"/><rect class="cls-5" x="58.18" y="33.01" width="38.41" height="18.15" transform="translate(35.29 119.47) rotate(-90)"/><rect class="cls-4" x="24.17" y="67.86" width="23.04" height="34.85" transform="translate(-49.6 120.97) rotate(-90)"/><rect class="cls-3" x="24.95" y="68.65" width="59.91" height="10.23" transform="translate(-18.86 128.67) rotate(-90)"/><rect class="cls-1" x="71.2" y="23.81" width="8.45" height="61.31" transform="translate(20.96 129.88) rotate(-90)"/><rect class="cls-1" x="-10.26" y="71.09" width="73.74" height="8.62" transform="translate(-48.79 102.01) rotate(-90)"/></g></g></svg>