<svg xmlns="http://www.w3.org/2000/svg" viewBox="0 0 134.19 115.49"><defs><style>.cls-1{fill:#231f20;}.cls-2{fill:#905ba5;}.cls-3{fill:#a5a4a4;}.cls-4{fill:#5d5c62;}.cls-5{fill:#4a2858;}.cls-6{fill:#ccbede;}</style></defs><title>icon4</title><g id="Layer_2" data-name="Layer 2"><g id="Layer_2-2" data-name="Layer 2"><rect class="cls-1" y="14.02" width="48.53" height="28.04" rx="12" ry="12"/><rect class="cls-2" x="4.13" y="28.04" width="48.53" height="28.04" rx="12" ry="12"/><rect class="cls-3" x="8.26" y="42.06" width="48.53" height="28.04" rx="12" ry="12"/><rect class="cls-4" x="28.4" y="48.37" width="48.53" height="28.04" rx="12" ry="12"/><rect class="cls-5" x="39.31" y="20.32" width="48.53" height="28.04" rx="12" ry="12"/><rect class="cls-6" x="40.12" width="48.53" height="28.04" rx="12" ry="12"/><rect class="cls-1" x="42.32" y="34.94" width="48.53" height="28.04" rx="12" ry="12" transform="translate(127.76 -6.63) rotate(101.41)"/><rect class="cls-2" x="27.76" y="36.22" width="48.53" height="28.04" rx="12" ry="12" transform="translate(111.57 9.17) rotate(101.41)"/><rect class="cls-3" x="13.2" y="37.5" width="48.53" height="28.04" rx="12" ry="12" transform="translate(95.38 24.98) rotate(101.41)"/><rect class="cls-4" x="3.04" y="55.99" width="48.53" height="28.04" rx="12" ry="12" transform="translate(101.33 57.08) rotate(101.41)"/><rect class="cls-5" x="28.37" y="72.23" width="48.53" height="28.04" rx="12" ry="12" transform="translate(147.59 51.71) rotate(101.41)"/><rect class="cls-6" x="48.14" y="77.04" width="48.53" height="28.04" rx="12" ry="12" transform="translate(175.98 38.1) rotate(101.41)"/><rect class="cls-1" x="70.33" y="11.57" width="48.53" height="28.04" rx="12" ry="12" transform="translate(64.23 -67.59) rotate(56.81)"/><rect class="cls-2" x="60.86" y="22.7" width="48.53" height="28.04" rx="12" ry="12" transform="translate(69.26 -54.62) rotate(56.81)"/><rect class="cls-3" x="51.39" y="33.83" width="48.53" height="28.04" rx="12" ry="12" transform="translate(74.29 -41.65) rotate(56.81)"/><rect class="cls-4" x="57.14" y="54.13" width="48.53" height="28.04" rx="12" ry="12" transform="translate(93.88 -37.28) rotate(56.81)"/><rect class="cls-5" x="86.58" y="47.91" width="48.53" height="28.04" rx="12" ry="12" transform="translate(102 -64.73) rotate(56.81)"/><rect class="cls-6" x="89.53" y="46.95" width="48.53" height="28.04" rx="12" ry="12" transform="translate(102.53 -67.63) rotate(56.81)"/><rect class="cls-1" x="57.92" y="72.23" width="48.53" height="28.04" rx="12" ry="12" transform="translate(190.5 135.84) rotate(158.22)"/><rect class="cls-2" x="66.96" y="46.95" width="48.53" height="28.04" rx="12" ry="12" transform="translate(198.56 83.74) rotate(158.22)"/><rect class="cls-3" x="57.92" y="35.47" width="48.53" height="28.04" rx="12" ry="12" transform="translate(176.86 64.94) rotate(158.22)"/><rect class="cls-4" x="54.83" y="22.7" width="48.53" height="28.04" rx="12" ry="12" transform="translate(166.17 41.47) rotate(158.22)"/><rect class="cls-5" x="17.94" y="14.02" width="48.53" height="28.04" rx="12" ry="12" transform="translate(91.8 38.42) rotate(158.22)"/><rect class="cls-6" x="42.32" y="77.83" width="48.53" height="28.04" rx="12" ry="12" transform="translate(162.51 152.43) rotate(158.22)"/></g></g></svg>